<?xml version="1.0" standalone="yes"?>
<svg width="157" height="175">
<path style="fill:#ffffff; stroke:none;" d="M0 0L0 50L1 50C2.68212 40.713 10.3771 36.2011 18 31.8495C35.3161 21.9645 54.0092 7.00955 73 1L50 0L0 0z"/>
<path style="fill:#ee9054; stroke:none;" d="M73 0.53241C54.7666 4.86916 35.2837 21.4611 19 30.7191C12.1613 34.6072 4.55683 38.1641 1.56327 46C-1.03304 52.796 0 60.8669 0 68L0 110C0 117.639 -1.03418 126.384 3.65201 132.985C12.0118 144.762 32.6293 152.248 45 159.281C56.4231 165.775 69.9725 177.804 84 174.468C102.233 170.131 121.716 153.539 138 144.281C144.839 140.393 152.443 136.836 155.437 129C158.033 122.204 157 114.133 157 107L157 65C157 57.3608 158.034 48.6161 153.348 42.0147C144.988 30.2382 124.371 22.7524 112 15.7191C100.577 9.22459 87.0276 -2.804 73 0.53241z"/>
<path style="fill:#ffffff; stroke:none;" d="M84 0L84 1C102.967 7.00197 121.729 21.9354 139 31.8503C146.56 36.1902 154.335 40.8082 156 50L157 50L157 0L84 0M39 72L39 99C43.0735 98.9995 48.2741 99.6874 51.7716 97.142C56.5217 93.685 56.9259 78.4772 52.6821 74.5139C49.1815 71.2446 43.3932 72.0005 39 72M60 72L60 99C64.1279 99 70.131 99.9564 73.5664 97.142C77.1997 94.1653 76.1281 76.5859 72.6821 73.7423C69.458 71.0818 63.8851 72 60 72M80 72L80 99L83 99L83 80L84 80L89 90L91 90L95 81L96 81L96 99L100 99C100 92.4072 102.377 80.2555 99.4005 74.3372C96.3929 68.358 91.5857 80.9668 91 83L89 83C87.0059 78.2117 85.2658 73.5589 80 72M104 93L103 94C106.259 100.21 117.61 101.068 119.547 92.9815C120.852 87.5324 101.461 75.0502 113.98 75.6343L119 76L119 73C113.035 72.2462 97.6744 73.4334 105.742 83.6065C108.083 86.5585 113.535 87.0726 114.654 91.0355C116.62 97.9966 106.437 93.9509 104 93z"/>
<path style="fill:#f6c4a4; stroke:none;" d="M115.667 72.3333L116.333 72.6667L115.667 72.3333z"/>
<path style="fill:#f8d3bb; stroke:none;" d="M38 73L38 98L39 98L38 73M59 73L59 98L60 98L59 73M79 73L79 98L80 98L79 73z"/>
<path style="fill:#f5bc98; stroke:none;" d="M42 75L42 96L43 96L42 75z"/>
<path style="fill:#ee9054; stroke:none;" d="M43 75L43 96C54.6153 95.6217 54.6153 75.3783 43 75z"/>
<path style="fill:#f5bc98; stroke:none;" d="M63 75L63 83L64 83L63 75z"/>
<path style="fill:#ee9054; stroke:none;" d="M64 75L64 83C72.3655 82.7253 72.3655 75.2747 64 75z"/>
<path style="fill:#f5bc98; stroke:none;" d="M75 76L75 80L76 80L75 76M83 80L83 98L84 98L83 80M63 86L63 96L64 96L63 86z"/>
<path style="fill:#ee9054; stroke:none;" d="M64 86L64 96C73.6547 95.6856 73.6547 86.3144 64 86z"/>
<path style="fill:#ffffff; stroke:none;" d="M0 125L0 175L73 175L73 174C64.1696 171.206 56.0156 165.017 48 160.421C30.7938 150.557 9.97115 142.618 0 125M156 125C154.318 134.287 146.623 138.799 139 143.15C121.684 153.036 102.991 167.99 84 174L84 175L157 175C157 160.951 161.409 137.89 156 125z"/>
</svg>
